<svg xmlns="http://www.w3.org/2000/svg" width="480" height="290" viewBox="0 0 480 290">
  <rect width="100%" height="100%" fill="#1a1b27"/>
  <rect x="0" y="0" width="30" height="30" fill="#8be9fd"/><rect x="450" y="0" width="30" height="30" fill="#8be9fd"/><rect x="30" y="0" width="30" height="30" fill="#ff79c6"/><rect x="420" y="0" width="30" height="30" fill="#ff79c6"/><rect x="60" y="0" width="30" height="30" fill="#ff79c6"/><rect x="390" y="0" width="30" height="30" fill="#ff79c6"/><rect x="150" y="0" width="30" height="30" fill="#8be9fd"/><rect x="300" y="0" width="30" height="30" fill="#8be9fd"/><rect x="180" y="0" width="30" height="30" fill="#ff79c6"/><rect x="270" y="0" width="30" height="30" fill="#ff79c6"/><rect x="210" y="0" width="30" height="30" fill="#bd93f9"/><rect x="240" y="0" width="30" height="30" fill="#bd93f9"/><rect x="0" y="30" width="30" height="30" fill="#ff79c6"/><rect x="450" y="30" width="30" height="30" fill="#ff79c6"/><rect x="60" y="30" width="30" height="30" fill="#8be9fd"/><rect x="390" y="30" width="30" height="30" fill="#8be9fd"/><rect x="90" y="30" width="30" height="30" fill="#bd93f9"/><rect x="360" y="30" width="30" height="30" fill="#bd93f9"/><rect x="180" y="30" width="30" height="30" fill="#bd93f9"/><rect x="270" y="30" width="30" height="30" fill="#bd93f9"/><rect x="60" y="60" width="30" height="30" fill="#ff79c6"/><rect x="390" y="60" width="30" height="30" fill="#ff79c6"/><rect x="150" y="60" width="30" height="30" fill="#8be9fd"/><rect x="300" y="60" width="30" height="30" fill="#8be9fd"/><rect x="180" y="60" width="30" height="30" fill="#bd93f9"/><rect x="270" y="60" width="30" height="30" fill="#bd93f9"/><rect x="210" y="60" width="30" height="30" fill="#bd93f9"/><rect x="240" y="60" width="30" height="30" fill="#bd93f9"/><rect x="0" y="90" width="30" height="30" fill="#8be9fd"/><rect x="450" y="90" width="30" height="30" fill="#8be9fd"/><rect x="60" y="90" width="30" height="30" fill="#8be9fd"/><rect x="390" y="90" width="30" height="30" fill="#8be9fd"/><rect x="150" y="90" width="30" height="30" fill="#8be9fd"/><rect x="300" y="90" width="30" height="30" fill="#8be9fd"/><rect x="180" y="90" width="30" height="30" fill="#ff79c6"/><rect x="270" y="90" width="30" height="30" fill="#ff79c6"/><rect x="0" y="120" width="30" height="30" fill="#bd93f9"/><rect x="450" y="120" width="30" height="30" fill="#bd93f9"/><rect x="30" y="120" width="30" height="30" fill="#8be9fd"/><rect x="420" y="120" width="30" height="30" fill="#8be9fd"/><rect x="90" y="120" width="30" height="30" fill="#ff79c6"/><rect x="360" y="120" width="30" height="30" fill="#ff79c6"/><rect x="180" y="120" width="30" height="30" fill="#bd93f9"/><rect x="270" y="120" width="30" height="30" fill="#bd93f9"/><rect x="0" y="150" width="30" height="30" fill="#bd93f9"/><rect x="450" y="150" width="30" height="30" fill="#bd93f9"/><rect x="30" y="150" width="30" height="30" fill="#bd93f9"/><rect x="420" y="150" width="30" height="30" fill="#bd93f9"/><rect x="90" y="150" width="30" height="30" fill="#bd93f9"/><rect x="360" y="150" width="30" height="30" fill="#bd93f9"/><rect x="120" y="150" width="30" height="30" fill="#bd93f9"/><rect x="330" y="150" width="30" height="30" fill="#bd93f9"/><rect x="150" y="150" width="30" height="30" fill="#bd93f9"/><rect x="300" y="150" width="30" height="30" fill="#bd93f9"/><rect x="60" y="180" width="30" height="30" fill="#8be9fd"/><rect x="390" y="180" width="30" height="30" fill="#8be9fd"/><rect x="90" y="180" width="30" height="30" fill="#8be9fd"/><rect x="360" y="180" width="30" height="30" fill="#8be9fd"/><rect x="180" y="180" width="30" height="30" fill="#ff79c6"/><rect x="270" y="180" width="30" height="30" fill="#ff79c6"/><rect x="30" y="210" width="30" height="30" fill="#bd93f9"/><rect x="420" y="210" width="30" height="30" fill="#bd93f9"/><rect x="60" y="210" width="30" height="30" fill="#ff79c6"/><rect x="390" y="210" width="30" height="30" fill="#ff79c6"/><rect x="120" y="210" width="30" height="30" fill="#bd93f9"/><rect x="330" y="210" width="30" height="30" fill="#bd93f9"/>
  <text x="240.0" y="270" font-family="monospace"
        font-size="14" fill="#ffffff" text-anchor="middle">Code today, debug tomorrow.</text>
</svg>