<svg xmlns="http://www.w3.org/2000/svg" width="480" height="290" viewBox="0 0 480 290">
  <rect width="100%" height="100%" fill="#0d1117"/>
  <rect x="150" y="0" width="30" height="30" fill="#006d32"/><rect x="300" y="0" width="30" height="30" fill="#006d32"/><rect x="180" y="0" width="30" height="30" fill="#39d353"/><rect x="270" y="0" width="30" height="30" fill="#39d353"/><rect x="180" y="30" width="30" height="30" fill="#39d353"/><rect x="270" y="30" width="30" height="30" fill="#39d353"/><rect x="30" y="60" width="30" height="30" fill="#39d353"/><rect x="420" y="60" width="30" height="30" fill="#39d353"/><rect x="90" y="60" width="30" height="30" fill="#26a641"/><rect x="360" y="60" width="30" height="30" fill="#26a641"/><rect x="120" y="60" width="30" height="30" fill="#26a641"/><rect x="330" y="60" width="30" height="30" fill="#26a641"/><rect x="150" y="60" width="30" height="30" fill="#39d353"/><rect x="300" y="60" width="30" height="30" fill="#39d353"/><rect x="180" y="60" width="30" height="30" fill="#006d32"/><rect x="270" y="60" width="30" height="30" fill="#006d32"/><rect x="0" y="90" width="30" height="30" fill="#26a641"/><rect x="450" y="90" width="30" height="30" fill="#26a641"/><rect x="180" y="90" width="30" height="30" fill="#006d32"/><rect x="270" y="90" width="30" height="30" fill="#006d32"/><rect x="30" y="120" width="30" height="30" fill="#006d32"/><rect x="420" y="120" width="30" height="30" fill="#006d32"/><rect x="60" y="120" width="30" height="30" fill="#006d32"/><rect x="390" y="120" width="30" height="30" fill="#006d32"/><rect x="90" y="120" width="30" height="30" fill="#006d32"/><rect x="360" y="120" width="30" height="30" fill="#006d32"/><rect x="120" y="120" width="30" height="30" fill="#39d353"/><rect x="330" y="120" width="30" height="30" fill="#39d353"/><rect x="150" y="120" width="30" height="30" fill="#006d32"/><rect x="300" y="120" width="30" height="30" fill="#006d32"/><rect x="180" y="120" width="30" height="30" fill="#006d32"/><rect x="270" y="120" width="30" height="30" fill="#006d32"/><rect x="30" y="150" width="30" height="30" fill="#006d32"/><rect x="420" y="150" width="30" height="30" fill="#006d32"/><rect x="60" y="150" width="30" height="30" fill="#26a641"/><rect x="390" y="150" width="30" height="30" fill="#26a641"/><rect x="120" y="150" width="30" height="30" fill="#006d32"/><rect x="330" y="150" width="30" height="30" fill="#006d32"/><rect x="0" y="180" width="30" height="30" fill="#26a641"/><rect x="450" y="180" width="30" height="30" fill="#26a641"/><rect x="30" y="180" width="30" height="30" fill="#26a641"/><rect x="420" y="180" width="30" height="30" fill="#26a641"/><rect x="90" y="180" width="30" height="30" fill="#39d353"/><rect x="360" y="180" width="30" height="30" fill="#39d353"/><rect x="150" y="180" width="30" height="30" fill="#26a641"/><rect x="300" y="180" width="30" height="30" fill="#26a641"/><rect x="180" y="180" width="30" height="30" fill="#006d32"/><rect x="270" y="180" width="30" height="30" fill="#006d32"/><rect x="30" y="210" width="30" height="30" fill="#006d32"/><rect x="420" y="210" width="30" height="30" fill="#006d32"/><rect x="90" y="210" width="30" height="30" fill="#39d353"/><rect x="360" y="210" width="30" height="30" fill="#39d353"/><rect x="150" y="210" width="30" height="30" fill="#39d353"/><rect x="300" y="210" width="30" height="30" fill="#39d353"/>
  <text x="240.0" y="270" font-family="monospace"
        font-size="14" fill="#ffffff" text-anchor="middle">Ship it.</text>
</svg>